<?xml version="1.0" standalone="no"?><!DOCTYPE svg PUBLIC "-//W3C//DTD SVG 1.1//EN" "http://www.w3.org/Graphics/SVG/1.1/DTD/svg11.dtd"><svg xmlns="http://www.w3.org/2000/svg" viewBox="0 0 650 400" version="1.1"><clipPath id="box"><rect x="0" y="0" width="650" height="400" style="fill:none;stroke:none;" /></clipPath><g clip-path="url(#box)"><rect x="0.00" y="0.00" width="650.00" height="400.00" style="fill:#FFFFFF;stroke:none;" /><path d="M0.00 372.00 L650.00 372.00 M0.00 307.00 L650.00 307.00 M0.00 242.00 L650.00 242.00 M0.00 177.00 L650.00 177.00 M0.00 112.00 L650.00 112.00 M0.00 47.00 L650.00 47.00 M0.00 0.00 L0.00 400.00 M64.00 0.00 L64.00 400.00 M129.00 0.00 L129.00 400.00 M194.00 0.00 L194.00 400.00 M260.00 0.00 L260.00 400.00 M325.00 0.00 L325.00 400.00 M390.00 0.00 L390.00 400.00 M454.00 0.00 L454.00 400.00 M520.00 0.00 L520.00 400.00 M585.00 0.00 L585.00 400.00 M650.00 0.00 L650.00 400.00 " style="fill:none;stroke:#D0D0D0;stroke-width:1;" /><path d="M325.00 0.00 L325.00 400.00 " style="fill:none;stroke:#000000;stroke-width:1;" /><path d="M318.50 437.00 L331.50 437.00 M318.50 372.00 L331.50 372.00 M318.50 307.00 L331.50 307.00 M318.50 242.00 L331.50 242.00 M318.50 177.00 L331.50 177.00 M318.50 112.00 L331.50 112.00 M318.50 47.00 L331.50 47.00 " style="fill:none;stroke:#000000;stroke-width:1;" /><path d="M0.00 372.00 L650.00 372.00 " style="fill:none;stroke:#000000;stroke-width:1;" /><path d="M0.00 365.50 L0.00 378.50 M65.00 365.50 L65.00 378.50 M130.00 365.50 L130.00 378.50 M195.00 365.50 L195.00 378.50 M260.00 365.50 L260.00 378.50 M325.00 365.50 L325.00 378.50 M390.00 365.50 L390.00 378.50 M455.00 365.50 L455.00 378.50 M520.00 365.50 L520.00 378.50 M585.00 365.50 L585.00 378.50 M650.00 365.50 L650.00 378.50 " style="fill:none;stroke:#000000;stroke-width:1;" /><text x="333.125" y="374.50000000000006" text-anchor="start" style="font:10px Droid Sans,Trebuchet MS,Arial,Helvetica,sans-serif;stroke:none;fill:#000000">0</text><text x="333.125" y="309.50000000000006" text-anchor="start" style="font:10px Droid Sans,Trebuchet MS,Arial,Helvetica,sans-serif;stroke:none;fill:#000000">0.2</text><text x="333.125" y="244.50000000000003" text-anchor="start" style="font:10px Droid Sans,Trebuchet MS,Arial,Helvetica,sans-serif;stroke:none;fill:#000000">0.4</text><text x="333.125" y="179.50000000000003" text-anchor="start" style="font:10px Droid Sans,Trebuchet MS,Arial,Helvetica,sans-serif;stroke:none;fill:#000000">0.6</text><text x="333.125" y="114.50000000000003" text-anchor="start" style="font:10px Droid Sans,Trebuchet MS,Arial,Helvetica,sans-serif;stroke:none;fill:#000000">0.8</text><text x="333.125" y="49.500000000000064" text-anchor="start" style="font:10px Droid Sans,Trebuchet MS,Arial,Helvetica,sans-serif;stroke:none;fill:#000000">1</text><text x="64.99999999999999" y="388.12500000000006" text-anchor="middle" style="font:10px Droid Sans,Trebuchet MS,Arial,Helvetica,sans-serif;stroke:none;fill:#000000">-0.8</text><text x="129.99999999999997" y="388.12500000000006" text-anchor="middle" style="font:10px Droid Sans,Trebuchet MS,Arial,Helvetica,sans-serif;stroke:none;fill:#000000">-0.6</text><text x="194.99999999999994" y="388.12500000000006" text-anchor="middle" style="font:10px Droid Sans,Trebuchet MS,Arial,Helvetica,sans-serif;stroke:none;fill:#000000">-0.4</text><text x="260" y="388.12500000000006" text-anchor="middle" style="font:10px Droid Sans,Trebuchet MS,Arial,Helvetica,sans-serif;stroke:none;fill:#000000">-0.2</text><text x="325" y="388.12500000000006" text-anchor="middle" style="font:10px Droid Sans,Trebuchet MS,Arial,Helvetica,sans-serif;stroke:none;fill:#000000">0</text><text x="390" y="388.12500000000006" text-anchor="middle" style="font:10px Droid Sans,Trebuchet MS,Arial,Helvetica,sans-serif;stroke:none;fill:#000000">0.2</text><text x="454.99999999999994" y="388.12500000000006" text-anchor="middle" style="font:10px Droid Sans,Trebuchet MS,Arial,Helvetica,sans-serif;stroke:none;fill:#000000">0.4</text><text x="520" y="388.12500000000006" text-anchor="middle" style="font:10px Droid Sans,Trebuchet MS,Arial,Helvetica,sans-serif;stroke:none;fill:#000000">0.6</text><text x="585" y="388.12500000000006" text-anchor="middle" style="font:10px Droid Sans,Trebuchet MS,Arial,Helvetica,sans-serif;stroke:none;fill:#000000">0.8</text><path d="M-10.00 200.00 L-0.25 46.50 L0.75 48.50 L1.25 49.50 L1.75 50.49 L2.25 51.49 L2.76 52.49 L3.26 53.49 L3.77 54.49 L4.27 55.49 L4.78 56.49 L5.28 57.48 L5.79 58.48 L6.30 59.48 L6.81 60.48 L7.32 61.48 L7.83 62.48 L8.34 63.47 L8.86 64.47 L9.37 65.47 L9.89 66.47 L10.40 67.47 L10.92 68.47 L11.43 69.46 L11.95 70.46 L12.47 71.46 L12.99 72.46 L13.51 73.46 L14.03 74.46 L14.55 75.45 L15.08 76.45 L15.60 77.45 L16.12 78.45 L16.65 79.45 L17.18 80.45 L17.70 81.44 L18.23 82.44 L18.76 83.44 L19.29 84.44 L19.82 85.44 L20.36 86.44 L20.89 87.43 L21.42 88.43 L21.96 89.43 L22.49 90.43 L23.03 91.43 L23.57 92.43 L24.11 93.42 L24.65 94.42 L25.19 95.42 L25.73 96.42 L26.27 97.42 L26.81 98.41 L27.36 99.41 L27.90 100.41 L28.45 101.41 L29.00 102.41 L29.55 103.41 L30.10 104.40 L30.65 105.40 L31.20 106.40 L31.75 107.40 L32.30 108.40 L32.86 109.39 L33.41 110.39 L33.97 111.39 L34.53 112.39 L35.09 113.39 L35.65 114.38 L36.21 115.38 L36.77 116.38 L37.33 117.38 L37.90 118.38 L38.46 119.37 L39.03 120.37 L39.60 121.37 L40.17 122.37 L40.74 123.37 L41.31 124.36 L41.88 125.36 L42.45 126.36 L43.03 127.36 L43.60 128.36 L44.18 129.35 L44.76 130.35 L45.34 131.35 L45.92 132.35 L46.50 133.35 L47.08 134.34 L47.67 135.34 L48.25 136.34 L48.84 137.34 L49.43 138.34 L50.02 139.33 L50.61 140.33 L51.20 141.33 L51.79 142.33 L52.38 143.33 L52.98 144.32 L53.58 145.32 L54.17 146.32 L54.77 147.32 L55.37 148.31 L55.98 149.31 L56.58 150.31 L57.18 151.31 L57.79 152.31 L58.40 153.30 L59.01 154.30 L59.62 155.30 L60.23 156.30 L60.84 157.29 L61.46 158.29 L62.07 159.29 L62.69 160.29 L63.31 161.28 L63.93 162.28 L64.55 163.28 L65.17 164.28 L65.80 165.27 L66.42 166.27 L67.05 167.27 L67.68 168.27 L68.31 169.27 L68.94 170.26 L69.58 171.26 L70.21 172.26 L70.85 173.26 L71.49 174.25 L72.13 175.25 L72.77 176.25 L73.41 177.25 L74.06 178.24 L74.71 179.24 L75.35 180.24 L76.00 181.23 L76.66 182.23 L77.31 183.23 L77.97 184.23 L78.62 185.22 L79.28 186.22 L79.94 187.22 L80.60 188.22 L81.27 189.21 L81.93 190.21 L82.60 191.21 L83.27 192.21 L83.94 193.20 L84.61 194.20 L85.29 195.20 L85.97 196.19 L86.65 197.19 L87.33 198.19 L88.01 199.19 L88.69 200.18 L89.38 201.18 L90.07 202.18 L90.76 203.17 L91.45 204.17 L92.15 205.17 L92.84 206.16 L93.54 207.16 L94.24 208.16 L94.95 209.16 L95.65 210.15 L96.36 211.15 L97.07 212.15 L97.78 213.14 L98.50 214.14 L99.21 215.14 L99.93 216.13 L100.65 217.13 L101.37 218.13 L102.10 219.12 L102.83 220.12 L103.56 221.12 L104.29 222.11 L105.03 223.11 L105.76 224.11 L106.50 225.10 L107.25 226.10 L107.99 227.10 L108.74 228.09 L109.49 229.09 L110.24 230.09 L111.00 231.08 L111.75 232.08 L112.51 233.08 L113.28 234.07 L114.04 235.07 L114.81 236.07 L115.58 237.06 L116.36 238.06 L117.14 239.06 L117.92 240.05 L118.70 241.05 L119.49 242.04 L120.28 243.04 L121.07 244.04 L121.86 245.03 L122.66 246.03 L123.46 247.02 L124.27 248.02 L125.08 249.02 L125.89 250.01 L126.70 251.01 L127.52 252.00 L128.34 253.00 L129.16 254.00 L129.99 254.99 L130.82 255.99 L131.66 256.98 L132.50 257.98 L133.34 258.97 L134.19 259.97 L135.04 260.97 L135.89 261.96 L136.75 262.96 L137.61 263.95 L138.47 264.95 L139.34 265.94 L140.22 266.94 L141.09 267.93 L141.97 268.93 L142.86 269.92 L143.75 270.92 L144.64 271.91 L145.54 272.91 L146.45 273.90 L147.35 274.90 L148.27 275.89 L149.18 276.89 L150.11 277.88 L151.03 278.88 L151.96 279.87 L152.90 280.87 L153.84 281.86 L154.79 282.86 L155.74 283.85 L156.70 284.85 L157.66 285.84 L158.63 286.83 L159.60 287.83 L160.58 288.82 L161.57 289.82 L162.56 290.81 L163.56 291.80 L164.56 292.80 L165.57 293.79 L166.59 294.79 L167.61 295.78 L168.64 296.77 L169.67 297.77 L170.72 298.76 L171.77 299.75 L172.82 300.75 L173.89 301.74 L174.96 302.73 L176.04 303.72 L177.13 304.72 L178.22 305.71 L179.32 306.70 L180.43 307.69 L181.55 308.69 L182.68 309.68 L183.82 310.67 L184.97 311.66 L186.12 312.66 L187.29 313.65 L188.46 314.64 L189.65 315.63 L190.84 316.62 L192.05 317.61 L193.27 318.60 L194.49 319.59 L195.73 320.58 L196.98 321.57 L198.25 322.57 L199.52 323.56 L200.81 324.54 L202.11 325.53 L203.43 326.52 L204.76 327.51 L206.10 328.50 L207.46 329.49 L208.84 330.48 L210.23 331.47 L211.63 332.46 L213.06 333.44 L214.50 334.43 L215.96 335.42 L217.44 336.40 L218.94 337.39 L220.46 338.38 L222.01 339.36 L223.57 340.35 L225.16 341.33 L226.78 342.31 L228.42 343.30 L230.09 344.28 L231.78 345.26 L233.51 346.25 L235.27 347.23 L237.06 348.21 L238.89 349.19 L240.76 350.17 L242.67 351.14 L244.62 352.12 L246.62 353.10 L248.62 354.05 L250.62 354.98 L252.62 355.88 L254.62 356.76 L256.62 357.61 L258.62 358.44 L260.62 359.25 L262.62 360.03 L264.62 360.78 L266.62 361.51 L268.62 362.22 L270.62 362.90 L272.62 363.56 L274.62 364.19 L276.62 364.80 L278.62 365.38 L280.62 365.94 L282.62 366.47 L284.62 366.98 L286.62 367.47 L288.62 367.93 L290.62 368.36 L292.62 368.77 L294.62 369.16 L296.62 369.52 L298.62 369.86 L300.62 370.17 L302.62 370.46 L304.62 370.72 L306.62 370.96 L308.62 371.17 L310.62 371.36 L312.62 371.53 L314.62 371.67 L316.62 371.78 L318.62 371.87 L320.62 371.94 L322.62 371.98 L324.62 372.00 L326.62 371.99 L328.62 371.96 L330.62 371.90 L332.62 371.82 L334.62 371.72 L336.62 371.58 L338.62 371.43 L340.62 371.25 L342.62 371.05 L344.62 370.82 L346.62 370.56 L348.62 370.28 L350.62 369.98 L352.62 369.65 L354.62 369.30 L356.62 368.92 L358.62 368.52 L360.62 368.10 L362.62 367.65 L364.62 367.17 L366.62 366.67 L368.62 366.15 L370.62 365.60 L372.62 365.02 L374.62 364.42 L376.62 363.80 L378.62 363.15 L380.62 362.48 L382.62 361.79 L384.62 361.06 L386.62 360.32 L388.62 359.55 L390.62 358.75 L392.62 357.93 L394.62 357.09 L396.62 356.22 L398.62 355.32 L400.62 354.41 L402.62 353.46 L404.62 352.50 L406.62 351.50 L408.62 350.49 L410.58 349.46 L412.51 348.44 L414.38 347.42 L416.22 346.40 L418.02 345.38 L419.78 344.36 L421.51 343.34 L423.21 342.32 L424.88 341.30 L426.52 340.29 L428.14 339.27 L429.72 338.25 L431.29 337.24 L432.83 336.22 L434.35 335.21 L435.84 334.20 L437.32 333.18 L438.77 332.17 L440.21 331.16 L441.63 330.14 L443.03 329.13 L444.42 328.12 L445.79 327.11 L447.14 326.10 L448.48 325.09 L449.80 324.08 L451.11 323.07 L452.41 322.05 L453.69 321.04 L454.96 320.03 L456.21 319.03 L457.46 318.02 L458.69 317.01 L459.91 316.00 L461.12 314.99 L462.32 313.98 L463.51 312.97 L464.69 311.96 L465.86 310.95 L467.01 309.94 L468.16 308.94 L469.30 307.93 L470.43 306.92 L471.55 305.91 L472.67 304.91 L473.77 303.90 L474.87 302.89 L475.96 301.88 L477.04 300.88 L478.11 299.87 L479.17 298.86 L480.23 297.85 L481.28 296.85 L482.33 295.84 L483.36 294.83 L484.39 293.83 L485.41 292.82 L486.43 291.82 L487.44 290.81 L488.44 289.80 L489.44 288.80 L490.43 287.79 L491.42 286.78 L492.40 285.78 L493.37 284.77 L494.34 283.77 L495.30 282.76 L496.26 281.76 L497.21 280.75 L498.16 279.74 L499.10 278.74 L500.03 277.73 L500.96 276.73 L501.89 275.72 L502.81 274.72 L503.73 273.71 L504.64 272.71 L505.55 271.70 L506.45 270.70 L507.35 269.69 L508.24 268.69 L509.13 267.68 L510.01 266.68 L510.89 265.67 L511.77 264.67 L512.64 263.66 L513.51 262.66 L514.37 261.65 L515.23 260.65 L516.09 259.65 L516.94 258.64 L517.79 257.64 L518.64 256.63 L519.48 255.63 L520.31 254.62 L521.15 253.62 L521.98 252.61 L522.80 251.61 L523.63 250.61 L524.45 249.60 L525.26 248.60 L526.08 247.59 L526.89 246.59 L527.69 245.59 L528.50 244.58 L529.30 243.58 L530.09 242.57 L530.89 241.57 L531.68 240.57 L532.47 239.56 L533.25 238.56 L534.03 237.56 L534.81 236.55 L535.59 235.55 L536.36 234.54 L537.13 233.54 L537.90 232.54 L538.66 231.53 L539.42 230.53 L540.18 229.53 L540.94 228.52 L541.69 227.52 L542.45 226.52 L543.19 225.51 L543.94 224.51 L544.68 223.51 L545.42 222.50 L546.16 221.50 L546.90 220.49 L547.63 219.49 L548.36 218.49 L549.09 217.49 L549.82 216.48 L550.54 215.48 L551.26 214.48 L551.98 213.47 L552.70 212.47 L553.42 211.47 L554.13 210.46 L554.84 209.46 L555.55 208.46 L556.25 207.45 L556.96 206.45 L557.66 205.45 L558.36 204.44 L559.05 203.44 L559.75 202.44 L560.44 201.44 L561.13 200.43 L561.82 199.43 L562.51 198.43 L563.20 197.42 L563.88 196.42 L564.56 195.42 L565.24 194.42 L565.92 193.41 L566.59 192.41 L567.27 191.41 L567.94 190.40 L568.61 189.40 L569.28 188.40 L569.94 187.40 L570.61 186.39 L571.27 185.39 L571.93 184.39 L572.59 183.38 L573.25 182.38 L573.90 181.38 L574.55 180.38 L575.21 179.37 L575.86 178.37 L576.51 177.37 L577.15 176.37 L577.80 175.36 L578.44 174.36 L579.08 173.36 L579.72 172.36 L580.36 171.35 L581.00 170.35 L581.64 169.35 L582.27 168.35 L582.90 167.34 L583.53 166.34 L584.16 165.34 L584.79 164.34 L585.42 163.33 L586.04 162.33 L586.66 161.33 L587.29 160.33 L587.91 159.32 L588.52 158.32 L589.14 157.32 L589.76 156.32 L590.37 155.32 L590.99 154.31 L591.60 153.31 L592.21 152.31 L592.82 151.31 L593.42 150.30 L594.03 149.30 L594.63 148.30 L595.24 147.30 L595.84 146.29 L596.44 145.29 L597.04 144.29 L597.64 143.29 L598.23 142.29 L598.83 141.28 L599.42 140.28 L600.02 139.28 L600.61 138.28 L601.20 137.28 L601.79 136.27 L602.38 135.27 L602.96 134.27 L603.55 133.27 L604.13 132.26 L604.71 131.26 L605.30 130.26 L605.88 129.26 L606.45 128.26 L607.03 127.25 L607.61 126.25 L608.18 125.25 L608.76 124.25 L609.33 123.25 L609.90 122.24 L610.48 121.24 L611.05 120.24 L611.61 119.24 L612.18 118.24 L612.75 117.23 L613.31 116.23 L613.88 115.23 L614.44 114.23 L615.00 113.23 L615.56 112.22 L616.12 111.22 L616.68 110.22 L617.24 109.22 L617.80 108.22 L618.35 107.21 L618.91 106.21 L619.46 105.21 L620.01 104.21 L620.56 103.21 L621.11 102.21 L621.66 101.20 L622.21 100.20 L622.76 99.20 L623.30 98.20 L623.85 97.20 L624.39 96.19 L624.94 95.19 L625.48 94.19 L626.02 93.19 L626.56 92.19 L627.10 91.19 L627.64 90.18 L628.18 89.18 L628.71 88.18 L629.25 87.18 L629.78 86.18 L630.32 85.17 L630.85 84.17 L631.38 83.17 L631.91 82.17 L632.44 81.17 L632.97 80.17 L633.50 79.16 L634.03 78.16 L634.55 77.16 L635.08 76.16 L635.60 75.16 L636.13 74.16 L636.65 73.15 L637.17 72.15 L637.69 71.15 L638.21 70.15 L638.73 69.15 L639.25 68.15 L639.77 67.14 L640.28 66.14 L640.80 65.14 L641.31 64.14 L641.83 63.14 L642.34 62.14 L642.85 61.13 L643.37 60.13 L643.88 59.13 L644.39 58.13 L644.90 57.13 L645.40 56.13 L645.91 55.12 L646.42 54.12 L646.92 53.12 L647.43 52.12 L647.93 51.12 L648.44 50.12 L648.94 49.12 L649.44 48.11 L649.94 47.11 " style="fill:none;stroke:#000000;stroke-width:1;" /></g></svg>