<?xml version="1.0" standalone="no"?><!DOCTYPE svg PUBLIC "-//W3C//DTD SVG 1.1//EN" "http://www.w3.org/Graphics/SVG/1.1/DTD/svg11.dtd"><svg xmlns="http://www.w3.org/2000/svg" viewBox="0 0 650 400" version="1.1"><clipPath id="box"><rect x="0" y="0" width="650" height="400" style="fill:none;stroke:none;" /></clipPath><g clip-path="url(#box)"><rect x="0.00" y="0.00" width="650.00" height="400.00" style="fill:#FFFFFF;stroke:none;" /><path d="M0.00 372.00 L650.00 372.00 M0.00 307.00 L650.00 307.00 M0.00 242.00 L650.00 242.00 M0.00 177.00 L650.00 177.00 M0.00 112.00 L650.00 112.00 M0.00 47.00 L650.00 47.00 M0.00 0.00 L0.00 400.00 M64.00 0.00 L64.00 400.00 M129.00 0.00 L129.00 400.00 M194.00 0.00 L194.00 400.00 M260.00 0.00 L260.00 400.00 M325.00 0.00 L325.00 400.00 M390.00 0.00 L390.00 400.00 M454.00 0.00 L454.00 400.00 M520.00 0.00 L520.00 400.00 M585.00 0.00 L585.00 400.00 M650.00 0.00 L650.00 400.00 " style="fill:none;stroke:#D0D0D0;stroke-width:1;" /><path d="M325.00 0.00 L325.00 400.00 " style="fill:none;stroke:#000000;stroke-width:1;" /><path d="M318.50 437.00 L331.50 437.00 M318.50 372.00 L331.50 372.00 M318.50 307.00 L331.50 307.00 M318.50 242.00 L331.50 242.00 M318.50 177.00 L331.50 177.00 M318.50 112.00 L331.50 112.00 M318.50 47.00 L331.50 47.00 " style="fill:none;stroke:#000000;stroke-width:1;" /><path d="M0.00 372.00 L650.00 372.00 " style="fill:none;stroke:#000000;stroke-width:1;" /><path d="M0.00 365.50 L0.00 378.50 M65.00 365.50 L65.00 378.50 M130.00 365.50 L130.00 378.50 M195.00 365.50 L195.00 378.50 M260.00 365.50 L260.00 378.50 M325.00 365.50 L325.00 378.50 M390.00 365.50 L390.00 378.50 M455.00 365.50 L455.00 378.50 M520.00 365.50 L520.00 378.50 M585.00 365.50 L585.00 378.50 M650.00 365.50 L650.00 378.50 " style="fill:none;stroke:#000000;stroke-width:1;" /><text x="333.125" y="374.50000000000006" text-anchor="start" style="font:10px Droid Sans,Trebuchet MS,Arial,Helvetica,sans-serif;stroke:none;fill:#000000">0</text><text x="333.125" y="309.50000000000006" text-anchor="start" style="font:10px Droid Sans,Trebuchet MS,Arial,Helvetica,sans-serif;stroke:none;fill:#000000">0.2</text><text x="333.125" y="244.50000000000003" text-anchor="start" style="font:10px Droid Sans,Trebuchet MS,Arial,Helvetica,sans-serif;stroke:none;fill:#000000">0.4</text><text x="333.125" y="179.50000000000003" text-anchor="start" style="font:10px Droid Sans,Trebuchet MS,Arial,Helvetica,sans-serif;stroke:none;fill:#000000">0.6</text><text x="333.125" y="114.50000000000003" text-anchor="start" style="font:10px Droid Sans,Trebuchet MS,Arial,Helvetica,sans-serif;stroke:none;fill:#000000">0.8</text><text x="333.125" y="49.500000000000064" text-anchor="start" style="font:10px Droid Sans,Trebuchet MS,Arial,Helvetica,sans-serif;stroke:none;fill:#000000">1</text><text x="64.99999999999999" y="388.12500000000006" text-anchor="middle" style="font:10px Droid Sans,Trebuchet MS,Arial,Helvetica,sans-serif;stroke:none;fill:#000000">-0.8</text><text x="129.99999999999997" y="388.12500000000006" text-anchor="middle" style="font:10px Droid Sans,Trebuchet MS,Arial,Helvetica,sans-serif;stroke:none;fill:#000000">-0.6</text><text x="194.99999999999994" y="388.12500000000006" text-anchor="middle" style="font:10px Droid Sans,Trebuchet MS,Arial,Helvetica,sans-serif;stroke:none;fill:#000000">-0.4</text><text x="260" y="388.12500000000006" text-anchor="middle" style="font:10px Droid Sans,Trebuchet MS,Arial,Helvetica,sans-serif;stroke:none;fill:#000000">-0.2</text><text x="325" y="388.12500000000006" text-anchor="middle" style="font:10px Droid Sans,Trebuchet MS,Arial,Helvetica,sans-serif;stroke:none;fill:#000000">0</text><text x="390" y="388.12500000000006" text-anchor="middle" style="font:10px Droid Sans,Trebuchet MS,Arial,Helvetica,sans-serif;stroke:none;fill:#000000">0.2</text><text x="454.99999999999994" y="388.12500000000006" text-anchor="middle" style="font:10px Droid Sans,Trebuchet MS,Arial,Helvetica,sans-serif;stroke:none;fill:#000000">0.4</text><text x="520" y="388.12500000000006" text-anchor="middle" style="font:10px Droid Sans,Trebuchet MS,Arial,Helvetica,sans-serif;stroke:none;fill:#000000">0.6</text><text x="585" y="388.12500000000006" text-anchor="middle" style="font:10px Droid Sans,Trebuchet MS,Arial,Helvetica,sans-serif;stroke:none;fill:#000000">0.8</text><path d="M-10.00 200.00 L-0.25 46.75 L0.75 47.75 L1.75 48.75 L2.75 49.75 L3.75 50.75 L4.75 51.75 L5.75 52.75 L6.75 53.75 L7.75 54.75 L8.75 55.75 L9.75 56.75 L10.75 57.75 L11.75 58.75 L12.75 59.75 L13.75 60.75 L14.75 61.75 L15.75 62.75 L16.75 63.75 L17.75 64.75 L18.75 65.75 L19.75 66.75 L20.75 67.75 L21.75 68.75 L22.75 69.75 L23.75 70.75 L24.75 71.75 L25.75 72.75 L26.75 73.75 L27.75 74.75 L28.75 75.75 L29.75 76.75 L30.75 77.75 L31.75 78.75 L32.75 79.75 L33.75 80.75 L34.75 81.75 L35.75 82.75 L36.75 83.75 L37.75 84.75 L38.75 85.75 L39.75 86.75 L40.75 87.75 L41.75 88.75 L42.75 89.75 L43.75 90.75 L44.75 91.75 L45.75 92.75 L46.75 93.75 L47.75 94.75 L48.75 95.75 L49.75 96.75 L50.75 97.75 L51.75 98.75 L52.75 99.75 L53.75 100.75 L54.75 101.75 L55.75 102.75 L56.75 103.75 L57.75 104.75 L58.75 105.75 L59.75 106.75 L60.75 107.75 L61.75 108.75 L62.75 109.75 L63.75 110.75 L64.75 111.75 L65.75 112.75 L66.75 113.75 L67.75 114.75 L68.75 115.75 L69.75 116.75 L70.75 117.75 L71.75 118.75 L72.75 119.75 L73.75 120.75 L74.75 121.75 L75.75 122.75 L76.75 123.75 L77.75 124.75 L78.75 125.75 L79.75 126.75 L80.75 127.75 L81.75 128.75 L82.75 129.75 L83.75 130.75 L84.75 131.75 L85.75 132.75 L86.75 133.75 L87.75 134.75 L88.75 135.75 L89.75 136.75 L90.75 137.75 L91.75 138.75 L92.75 139.75 L93.75 140.75 L94.75 141.75 L95.75 142.75 L96.75 143.75 L97.75 144.75 L98.75 145.75 L99.75 146.75 L100.75 147.75 L101.75 148.75 L102.75 149.75 L103.75 150.75 L104.75 151.75 L105.75 152.75 L106.75 153.75 L107.75 154.75 L108.75 155.75 L109.75 156.75 L110.75 157.75 L111.75 158.75 L112.75 159.75 L113.75 160.75 L114.75 161.75 L115.75 162.75 L116.75 163.75 L117.75 164.75 L118.75 165.75 L119.75 166.75 L120.75 167.75 L121.75 168.75 L122.75 169.75 L123.75 170.75 L124.75 171.75 L125.75 172.75 L126.75 173.75 L127.75 174.75 L128.75 175.75 L129.75 176.75 L130.75 177.75 L131.75 178.75 L132.75 179.75 L133.75 180.75 L134.75 181.75 L135.75 182.75 L136.75 183.75 L137.75 184.75 L138.75 185.75 L139.75 186.75 L140.75 187.75 L141.75 188.75 L142.75 189.75 L143.75 190.75 L144.75 191.75 L145.75 192.75 L146.75 193.75 L147.75 194.75 L148.75 195.75 L149.75 196.75 L150.75 197.75 L151.75 198.75 L152.75 199.75 L153.75 200.75 L154.75 201.75 L155.75 202.75 L156.75 203.75 L157.75 204.75 L158.75 205.75 L159.75 206.75 L160.75 207.75 L161.75 208.75 L162.75 209.75 L163.75 210.75 L164.75 211.75 L165.75 212.75 L166.75 213.75 L167.75 214.75 L168.75 215.75 L169.75 216.75 L170.75 217.75 L171.75 218.75 L172.75 219.75 L173.75 220.75 L174.75 221.75 L175.75 222.75 L176.75 223.75 L177.75 224.75 L178.75 225.75 L179.75 226.75 L180.75 227.75 L181.75 228.75 L182.75 229.75 L183.75 230.75 L184.75 231.75 L185.75 232.75 L186.75 233.75 L187.75 234.75 L188.75 235.75 L189.75 236.75 L190.75 237.75 L191.75 238.75 L192.75 239.75 L193.75 240.75 L194.75 241.75 L195.75 242.75 L196.75 243.75 L197.75 244.75 L198.75 245.75 L199.75 246.75 L200.75 247.75 L201.75 248.75 L202.75 249.75 L203.75 250.75 L204.75 251.75 L205.75 252.75 L206.75 253.75 L207.75 254.75 L208.75 255.75 L209.75 256.75 L210.75 257.75 L211.75 258.75 L212.75 259.75 L213.75 260.75 L214.75 261.75 L215.75 262.75 L216.75 263.75 L217.75 264.75 L218.75 265.75 L219.75 266.75 L220.75 267.75 L221.75 268.75 L222.75 269.75 L223.75 270.75 L224.75 271.75 L225.75 272.75 L226.75 273.75 L227.75 274.75 L228.75 275.75 L229.75 276.75 L230.75 277.75 L231.75 278.75 L232.75 279.75 L233.75 280.75 L234.75 281.75 L235.75 282.75 L236.75 283.75 L237.75 284.75 L238.75 285.75 L239.75 286.75 L240.75 287.75 L241.75 288.75 L242.75 289.75 L243.75 290.75 L244.75 291.75 L245.75 292.75 L246.75 293.75 L247.75 294.75 L248.75 295.75 L249.75 296.75 L250.75 297.75 L251.75 298.75 L252.75 299.75 L253.75 300.75 L254.75 301.75 L255.75 302.75 L256.75 303.75 L257.75 304.75 L258.75 305.75 L259.75 306.75 L260.75 307.75 L261.75 308.75 L262.75 309.75 L263.75 310.75 L264.75 311.75 L265.75 312.75 L266.75 313.75 L267.75 314.75 L268.75 315.75 L269.75 316.75 L270.75 317.75 L271.75 318.75 L272.75 319.75 L273.75 320.75 L274.75 321.75 L275.75 322.75 L276.75 323.75 L277.75 324.75 L278.75 325.75 L279.75 326.75 L280.75 327.75 L281.75 328.75 L282.75 329.75 L283.75 330.75 L284.75 331.75 L285.75 332.75 L286.75 333.75 L287.75 334.75 L288.75 335.75 L289.75 336.75 L290.75 337.75 L291.75 338.75 L292.75 339.75 L293.75 340.75 L294.75 341.75 L295.75 342.75 L296.75 343.75 L297.75 344.75 L298.75 345.75 L299.75 346.75 L300.75 347.75 L301.75 348.75 L302.75 349.75 L303.75 350.75 L304.75 351.75 L305.75 352.75 L306.75 353.75 L307.75 354.75 L308.75 355.75 L309.75 356.75 L310.75 357.75 L311.75 358.75 L312.75 359.75 L313.75 360.75 L314.75 361.75 L315.75 362.75 L316.75 363.75 L317.75 364.75 L318.75 365.75 L319.75 366.75 L320.75 367.75 L321.75 368.75 L322.75 369.75 L323.75 370.75 L324.75 371.75 L325.75 371.25 L327.75 369.25 L328.75 368.25 L329.75 367.25 L330.75 366.25 L331.75 365.25 L332.75 364.25 L333.75 363.25 L334.75 362.25 L335.75 361.25 L336.75 360.25 L337.75 359.25 L338.75 358.25 L339.75 357.25 L340.75 356.25 L341.75 355.25 L342.75 354.25 L343.75 353.25 L344.75 352.25 L345.75 351.25 L346.75 350.25 L347.75 349.25 L348.75 348.25 L349.75 347.25 L350.75 346.25 L351.75 345.25 L352.75 344.25 L353.75 343.25 L354.75 342.25 L355.75 341.25 L356.75 340.25 L357.75 339.25 L358.75 338.25 L359.75 337.25 L360.75 336.25 L361.75 335.25 L362.75 334.25 L363.75 333.25 L364.75 332.25 L365.75 331.25 L366.75 330.25 L367.75 329.25 L368.75 328.25 L369.75 327.25 L370.75 326.25 L371.75 325.25 L372.75 324.25 L373.75 323.25 L374.75 322.25 L375.75 321.25 L376.75 320.25 L377.75 319.25 L378.75 318.25 L379.75 317.25 L380.75 316.25 L381.75 315.25 L382.75 314.25 L383.75 313.25 L384.75 312.25 L385.75 311.25 L386.75 310.25 L387.75 309.25 L388.75 308.25 L389.75 307.25 L390.75 306.25 L391.75 305.25 L392.75 304.25 L393.75 303.25 L394.75 302.25 L395.75 301.25 L396.75 300.25 L397.75 299.25 L398.75 298.25 L399.75 297.25 L400.75 296.25 L401.75 295.25 L402.75 294.25 L403.75 293.25 L404.75 292.25 L405.75 291.25 L406.75 290.25 L407.75 289.25 L408.75 288.25 L409.75 287.25 L410.75 286.25 L411.75 285.25 L412.75 284.25 L413.75 283.25 L414.75 282.25 L415.75 281.25 L416.75 280.25 L417.75 279.25 L418.75 278.25 L419.75 277.25 L420.75 276.25 L421.75 275.25 L422.75 274.25 L423.75 273.25 L424.75 272.25 L425.75 271.25 L426.75 270.25 L427.75 269.25 L428.75 268.25 L429.75 267.25 L430.75 266.25 L431.75 265.25 L432.75 264.25 L433.75 263.25 L434.75 262.25 L435.75 261.25 L436.75 260.25 L437.75 259.25 L438.75 258.25 L439.75 257.25 L440.75 256.25 L441.75 255.25 L442.75 254.25 L443.75 253.25 L444.75 252.25 L445.75 251.25 L446.75 250.25 L447.75 249.25 L448.75 248.25 L449.75 247.25 L450.75 246.25 L451.75 245.25 L452.75 244.25 L453.75 243.25 L454.75 242.25 L455.75 241.25 L456.75 240.25 L457.75 239.25 L458.75 238.25 L459.75 237.25 L460.75 236.25 L461.75 235.25 L462.75 234.25 L463.75 233.25 L464.75 232.25 L465.75 231.25 L466.75 230.25 L467.75 229.25 L468.75 228.25 L469.75 227.25 L470.75 226.25 L471.75 225.25 L472.75 224.25 L473.75 223.25 L474.75 222.25 L475.75 221.25 L476.75 220.25 L477.75 219.25 L478.75 218.25 L479.75 217.25 L480.75 216.25 L481.75 215.25 L482.75 214.25 L483.75 213.25 L484.75 212.25 L485.75 211.25 L486.75 210.25 L487.75 209.25 L488.75 208.25 L489.75 207.25 L490.75 206.25 L491.75 205.25 L492.75 204.25 L493.75 203.25 L494.75 202.25 L495.75 201.25 L496.75 200.25 L497.75 199.25 L498.75 198.25 L499.75 197.25 L500.75 196.25 L501.75 195.25 L502.75 194.25 L503.75 193.25 L504.75 192.25 L505.75 191.25 L506.75 190.25 L507.75 189.25 L508.75 188.25 L509.75 187.25 L510.75 186.25 L511.75 185.25 L512.75 184.25 L513.75 183.25 L514.75 182.25 L515.75 181.25 L516.75 180.25 L517.75 179.25 L518.75 178.25 L519.75 177.25 L520.75 176.25 L521.75 175.25 L522.75 174.25 L523.75 173.25 L524.75 172.25 L525.75 171.25 L526.75 170.25 L527.75 169.25 L528.75 168.25 L529.75 167.25 L530.75 166.25 L531.75 165.25 L532.75 164.25 L533.75 163.25 L534.75 162.25 L535.75 161.25 L536.75 160.25 L537.75 159.25 L538.75 158.25 L539.75 157.25 L540.75 156.25 L541.75 155.25 L542.75 154.25 L543.75 153.25 L544.75 152.25 L545.75 151.25 L546.75 150.25 L547.75 149.25 L548.75 148.25 L549.75 147.25 L550.75 146.25 L551.75 145.25 L552.75 144.25 L553.75 143.25 L554.75 142.25 L555.75 141.25 L556.75 140.25 L557.75 139.25 L558.75 138.25 L559.75 137.25 L560.75 136.25 L561.75 135.25 L562.75 134.25 L563.75 133.25 L564.75 132.25 L565.75 131.25 L566.75 130.25 L567.75 129.25 L568.75 128.25 L569.75 127.25 L570.75 126.25 L571.75 125.25 L572.75 124.25 L573.75 123.25 L574.75 122.25 L575.75 121.25 L576.75 120.25 L577.75 119.25 L578.75 118.25 L579.75 117.25 L580.75 116.25 L581.75 115.25 L582.75 114.25 L583.75 113.25 L584.75 112.25 L585.75 111.25 L586.75 110.25 L587.75 109.25 L588.75 108.25 L589.75 107.25 L590.75 106.25 L591.75 105.25 L592.75 104.25 L593.75 103.25 L594.75 102.25 L595.75 101.25 L596.75 100.25 L597.75 99.25 L598.75 98.25 L599.75 97.25 L600.75 96.25 L601.75 95.25 L602.75 94.25 L603.75 93.25 L604.75 92.25 L605.75 91.25 L606.75 90.25 L607.75 89.25 L608.75 88.25 L609.75 87.25 L610.75 86.25 L611.75 85.25 L612.75 84.25 L613.75 83.25 L614.75 82.25 L615.75 81.25 L616.75 80.25 L617.75 79.25 L618.75 78.25 L619.75 77.25 L620.75 76.25 L621.75 75.25 L622.75 74.25 L623.75 73.25 L624.75 72.25 L625.75 71.25 L626.75 70.25 L627.75 69.25 L628.75 68.25 L629.75 67.25 L630.75 66.25 L631.75 65.25 L632.75 64.25 L633.75 63.25 L634.75 62.25 L635.75 61.25 L636.75 60.25 L637.75 59.25 L638.75 58.25 L639.75 57.25 L640.75 56.25 L641.75 55.25 L642.75 54.25 L643.75 53.25 L644.75 52.25 L645.75 51.25 L646.75 50.25 L647.75 49.25 L648.75 48.25 L649.75 47.25 " style="fill:none;stroke:#000000;stroke-width:1;" /></g></svg>