<?xml version="1.0" standalone="no"?><!DOCTYPE svg PUBLIC "-//W3C//DTD SVG 1.1//EN" "http://www.w3.org/Graphics/SVG/1.1/DTD/svg11.dtd"><svg xmlns="http://www.w3.org/2000/svg" viewBox="0 0 650 400" version="1.1"><clipPath id="box"><rect x="0" y="0" width="650" height="400" style="fill:none;stroke:none;" /></clipPath><g clip-path="url(#box)"><rect x="0.00" y="0.00" width="650.00" height="400.00" style="fill:#FFFFFF;stroke:none;" /><path d="M0.00 396.00 L650.00 396.00 M0.00 346.00 L650.00 346.00 M0.00 296.00 L650.00 296.00 M0.00 246.00 L650.00 246.00 M0.00 196.00 L650.00 196.00 M0.00 146.00 L650.00 146.00 M0.00 96.00 L650.00 96.00 M0.00 46.00 L650.00 46.00 M69.00 0.00 L69.00 400.00 M150.00 0.00 L150.00 400.00 M231.00 0.00 L231.00 400.00 M313.00 0.00 L313.00 400.00 M394.00 0.00 L394.00 400.00 M475.00 0.00 L475.00 400.00 M556.00 0.00 L556.00 400.00 M638.00 0.00 L638.00 400.00 " style="fill:none;stroke:#D0D0D0;stroke-width:1;" /><path d="M313.00 0.00 L313.00 400.00 " style="fill:none;stroke:#000000;stroke-width:1;" /><path d="M306.50 446.00 L319.50 446.00 M306.50 396.00 L319.50 396.00 M306.50 346.00 L319.50 346.00 M306.50 296.00 L319.50 296.00 M306.50 246.00 L319.50 246.00 M306.50 196.00 L319.50 196.00 M306.50 146.00 L319.50 146.00 M306.50 96.00 L319.50 96.00 M306.50 46.00 L319.50 46.00 " style="fill:none;stroke:#000000;stroke-width:1;" /><path d="M0.00 346.00 L650.00 346.00 " style="fill:none;stroke:#000000;stroke-width:1;" /><path d="M-12.00 339.50 L-12.00 352.50 M69.25 339.50 L69.25 352.50 M150.50 339.50 L150.50 352.50 M231.75 339.50 L231.75 352.50 M313.00 339.50 L313.00 352.50 M394.25 339.50 L394.25 352.50 M475.50 339.50 L475.50 352.50 M556.75 339.50 L556.75 352.50 M638.00 339.50 L638.00 352.50 " style="fill:none;stroke:#000000;stroke-width:1;" /><text x="321.125" y="348.5" text-anchor="start" style="font:10px Droid Sans,Trebuchet MS,Arial,Helvetica,sans-serif;stroke:none;fill:#000000">0</text><text x="321.125" y="298.5" text-anchor="start" style="font:10px Droid Sans,Trebuchet MS,Arial,Helvetica,sans-serif;stroke:none;fill:#000000">5</text><text x="321.125" y="248.5" text-anchor="start" style="font:10px Droid Sans,Trebuchet MS,Arial,Helvetica,sans-serif;stroke:none;fill:#000000">10</text><text x="321.125" y="198.50000000000003" text-anchor="start" style="font:10px Droid Sans,Trebuchet MS,Arial,Helvetica,sans-serif;stroke:none;fill:#000000">15</text><text x="321.125" y="148.50000000000003" text-anchor="start" style="font:10px Droid Sans,Trebuchet MS,Arial,Helvetica,sans-serif;stroke:none;fill:#000000">20</text><text x="321.125" y="98.50000000000001" text-anchor="start" style="font:10px Droid Sans,Trebuchet MS,Arial,Helvetica,sans-serif;stroke:none;fill:#000000">25</text><text x="321.125" y="48.500000000000014" text-anchor="start" style="font:10px Droid Sans,Trebuchet MS,Arial,Helvetica,sans-serif;stroke:none;fill:#000000">30</text><text x="69.24999999999999" y="362.125" text-anchor="middle" style="font:10px Droid Sans,Trebuchet MS,Arial,Helvetica,sans-serif;stroke:none;fill:#000000">-15</text><text x="150.5" y="362.125" text-anchor="middle" style="font:10px Droid Sans,Trebuchet MS,Arial,Helvetica,sans-serif;stroke:none;fill:#000000">-10</text><text x="231.75" y="362.125" text-anchor="middle" style="font:10px Droid Sans,Trebuchet MS,Arial,Helvetica,sans-serif;stroke:none;fill:#000000">-5</text><text x="313" y="362.125" text-anchor="middle" style="font:10px Droid Sans,Trebuchet MS,Arial,Helvetica,sans-serif;stroke:none;fill:#000000">0</text><text x="394.24999999999994" y="362.125" text-anchor="middle" style="font:10px Droid Sans,Trebuchet MS,Arial,Helvetica,sans-serif;stroke:none;fill:#000000">5</text><text x="475.49999999999994" y="362.125" text-anchor="middle" style="font:10px Droid Sans,Trebuchet MS,Arial,Helvetica,sans-serif;stroke:none;fill:#000000">10</text><text x="556.75" y="362.125" text-anchor="middle" style="font:10px Droid Sans,Trebuchet MS,Arial,Helvetica,sans-serif;stroke:none;fill:#000000">15</text><text x="638" y="362.125" text-anchor="middle" style="font:10px Droid Sans,Trebuchet MS,Arial,Helvetica,sans-serif;stroke:none;fill:#000000">20</text><path d="M217.41 -0.00 L217.41 0.00 L217.55 1.00 L217.69 2.00 L217.83 3.00 L217.97 4.00 L218.11 5.00 L218.25 5.99 L218.39 6.99 L218.52 7.99 L218.66 8.99 L218.80 9.99 L218.94 10.99 L219.08 11.99 L219.23 12.98 L219.37 13.98 L219.51 14.98 L219.65 15.98 L219.79 16.98 L219.93 17.98 L220.07 18.98 L220.21 19.97 L220.36 20.97 L220.50 21.97 L220.64 22.97 L220.78 23.97 L220.93 24.97 L221.07 25.96 L221.21 26.96 L221.36 27.96 L221.50 28.96 L221.65 29.96 L221.79 30.96 L221.94 31.96 L222.08 32.95 L222.23 33.95 L222.37 34.95 L222.52 35.95 L222.66 36.95 L222.81 37.95 L222.95 38.94 L223.10 39.94 L223.25 40.94 L223.39 41.94 L223.54 42.94 L223.69 43.94 L223.84 44.93 L223.99 45.93 L224.13 46.93 L224.28 47.93 L224.43 48.93 L224.58 49.93 L224.73 50.92 L224.88 51.92 L225.03 52.92 L225.18 53.92 L225.33 54.92 L225.48 55.92 L225.63 56.91 L225.78 57.91 L225.93 58.91 L226.08 59.91 L226.23 60.91 L226.39 61.91 L226.54 62.90 L226.69 63.90 L226.84 64.90 L227.00 65.90 L227.15 66.90 L227.30 67.89 L227.46 68.89 L227.61 69.89 L227.77 70.89 L227.92 71.89 L228.08 72.89 L228.23 73.88 L228.39 74.88 L228.54 75.88 L228.70 76.88 L228.86 77.88 L229.01 78.87 L229.17 79.87 L229.33 80.87 L229.49 81.87 L229.64 82.87 L229.80 83.86 L229.96 84.86 L230.12 85.86 L230.28 86.86 L230.44 87.86 L230.60 88.86 L230.76 89.85 L230.92 90.85 L231.08 91.85 L231.24 92.85 L231.40 93.85 L231.56 94.84 L231.72 95.84 L231.89 96.84 L232.05 97.84 L232.21 98.84 L232.38 99.83 L232.54 100.83 L232.70 101.83 L232.87 102.83 L233.03 103.83 L233.20 104.82 L233.36 105.82 L233.53 106.82 L233.69 107.82 L233.86 108.82 L234.03 109.81 L234.19 110.81 L234.36 111.81 L234.53 112.81 L234.70 113.80 L234.87 114.80 L235.03 115.80 L235.20 116.80 L235.37 117.80 L235.54 118.79 L235.71 119.79 L235.88 120.79 L236.05 121.79 L236.23 122.78 L236.40 123.78 L236.57 124.78 L236.74 125.78 L236.92 126.78 L237.09 127.77 L237.26 128.77 L237.44 129.77 L237.61 130.77 L237.79 131.76 L237.96 132.76 L238.14 133.76 L238.31 134.76 L238.49 135.75 L238.67 136.75 L238.84 137.75 L239.02 138.75 L239.20 139.75 L239.38 140.74 L239.56 141.74 L239.74 142.74 L239.92 143.74 L240.10 144.73 L240.28 145.73 L240.46 146.73 L240.64 147.73 L240.82 148.72 L241.01 149.72 L241.19 150.72 L241.37 151.72 L241.56 152.71 L241.74 153.71 L241.93 154.71 L242.11 155.71 L242.30 156.70 L242.49 157.70 L242.67 158.70 L242.86 159.69 L243.05 160.69 L243.24 161.69 L243.43 162.69 L243.61 163.68 L243.81 164.68 L244.00 165.68 L244.19 166.68 L244.38 167.67 L244.57 168.67 L244.76 169.67 L244.96 170.66 L245.15 171.66 L245.34 172.66 L245.54 173.66 L245.73 174.65 L245.93 175.65 L246.13 176.65 L246.32 177.64 L246.52 178.64 L246.72 179.64 L246.92 180.64 L247.12 181.63 L247.32 182.63 L247.52 183.63 L247.72 184.62 L247.92 185.62 L248.13 186.62 L248.33 187.61 L248.53 188.61 L248.74 189.61 L248.94 190.60 L249.15 191.60 L249.35 192.60 L249.56 193.59 L249.77 194.59 L249.98 195.59 L250.19 196.58 L250.40 197.58 L250.61 198.58 L250.82 199.57 L251.03 200.57 L251.24 201.57 L251.46 202.56 L251.67 203.56 L251.89 204.56 L252.10 205.55 L252.32 206.55 L252.53 207.55 L252.75 208.54 L252.97 209.54 L253.19 210.54 L253.41 211.53 L253.63 212.53 L253.85 213.53 L254.08 214.52 L254.30 215.52 L254.53 216.51 L254.75 217.51 L254.98 218.51 L255.20 219.50 L255.43 220.50 L255.66 221.49 L255.89 222.49 L256.12 223.49 L256.35 224.48 L256.59 225.48 L256.82 226.47 L257.05 227.47 L257.29 228.47 L257.53 229.46 L257.76 230.46 L258.00 231.45 L258.24 232.45 L258.48 233.44 L258.72 234.44 L258.97 235.44 L259.21 236.43 L259.46 237.43 L259.70 238.42 L259.95 239.42 L260.20 240.41 L260.45 241.41 L260.70 242.40 L260.95 243.40 L261.20 244.39 L261.46 245.39 L261.71 246.38 L261.97 247.38 L262.23 248.37 L262.49 249.37 L262.75 250.36 L263.01 251.36 L263.27 252.35 L263.54 253.35 L263.80 254.34 L264.07 255.34 L264.34 256.33 L264.61 257.33 L264.88 258.32 L265.16 259.31 L265.43 260.31 L265.71 261.30 L265.99 262.30 L266.27 263.29 L266.55 264.29 L266.83 265.28 L267.12 266.27 L267.40 267.27 L267.69 268.26 L267.98 269.25 L268.27 270.25 L268.57 271.24 L268.87 272.23 L269.16 273.23 L269.46 274.22 L269.77 275.21 L270.07 276.21 L270.38 277.20 L270.69 278.19 L271.00 279.19 L271.31 280.18 L271.62 281.17 L271.94 282.16 L272.26 283.16 L272.59 284.15 L272.91 285.14 L273.24 286.13 L273.57 287.12 L273.90 288.11 L274.24 289.11 L274.58 290.10 L274.92 291.09 L275.27 292.08 L275.61 293.07 L275.97 294.06 L276.32 295.05 L276.68 296.04 L277.04 297.03 L277.41 298.02 L277.78 299.01 L278.15 300.00 L278.52 300.99 L278.91 301.98 L279.29 302.97 L279.68 303.96 L280.07 304.95 L280.47 305.93 L280.88 306.92 L281.28 307.91 L281.70 308.90 L282.12 309.88 L282.54 310.87 L282.97 311.86 L283.41 312.84 L283.85 313.83 L284.30 314.81 L284.76 315.80 L285.22 316.78 L285.69 317.76 L286.17 318.75 L286.66 319.73 L287.16 320.71 L287.66 321.69 L288.18 322.67 L288.71 323.65 L289.24 324.63 L289.79 325.60 L290.36 326.58 L290.93 327.56 L291.52 328.53 L292.13 329.50 L292.75 330.47 L293.39 331.44 L294.06 332.41 L294.74 333.37 L295.45 334.34 L296.19 335.30 L296.96 336.25 L297.76 337.21 L298.60 338.15 L299.50 339.09 L300.44 340.03 L301.46 340.95 L302.55 341.87 L303.75 342.76 L305.09 343.63 L306.63 344.46 L308.48 345.23 L310.48 345.76 L312.48 345.99 L314.48 345.92 L316.48 345.54 L318.48 344.86 L320.48 343.88 L322.48 342.60 L324.04 341.39 L325.32 340.25 L326.46 339.14 L327.48 338.06 L328.42 336.99 L329.31 335.93 L330.14 334.87 L330.93 333.83 L331.68 332.78 L332.40 331.74 L333.10 330.70 L333.77 329.67 L334.41 328.64 L335.04 327.61 L335.65 326.58 L336.24 325.55 L336.81 324.53 L337.37 323.50 L337.92 322.48 L338.46 321.46 L338.98 320.44 L339.49 319.42 L340.00 318.40 L340.49 317.38 L340.98 316.36 L341.45 315.34 L341.92 314.33 L342.38 313.31 L342.83 312.30 L343.28 311.28 L343.72 310.27 L344.15 309.25 L344.58 308.24 L345.00 307.22 L345.41 306.21 L345.82 305.20 L346.23 304.19 L346.63 303.17 L347.02 302.16 L347.41 301.15 L347.80 300.14 L348.18 299.13 L348.56 298.12 L348.93 297.11 L349.30 296.10 L349.67 295.08 L350.03 294.07 L350.39 293.07 L350.74 292.06 L351.09 291.05 L351.44 290.04 L351.79 289.03 L352.13 288.02 L352.47 287.01 L352.80 286.00 L353.14 284.99 L353.47 283.98 L353.79 282.98 L354.12 281.97 L354.44 280.96 L354.76 279.95 L355.08 278.95 L355.39 277.94 L355.71 276.93 L356.02 275.92 L356.33 274.92 L356.63 273.91 L356.93 272.90 L357.24 271.89 L357.54 270.89 L357.83 269.88 L358.13 268.87 L358.42 267.87 L358.71 266.86 L359.00 265.86 L359.29 264.85 L359.58 263.84 L359.86 262.84 L360.14 261.83 L360.43 260.82 L360.70 259.82 L360.98 258.81 L361.26 257.81 L361.53 256.80 L361.81 255.80 L362.08 254.79 L362.35 253.78 L362.61 252.78 L362.88 251.77 L363.15 250.77 L363.41 249.76 L363.67 248.76 L363.93 247.75 L364.19 246.75 L364.45 245.74 L364.71 244.74 L364.97 243.73 L365.22 242.73 L365.47 241.72 L365.73 240.72 L365.98 239.71 L366.23 238.71 L366.48 237.70 L366.72 236.70 L366.97 235.69 L367.22 234.69 L367.46 233.69 L367.70 232.68 L367.94 231.68 L368.18 230.67 L368.42 229.67 L368.66 228.66 L368.90 227.66 L369.14 226.65 L369.37 225.65 L369.61 224.65 L369.84 223.64 L370.07 222.64 L370.31 221.63 L370.54 220.63 L370.77 219.63 L371.00 218.62 L371.22 217.62 L371.45 216.61 L371.68 215.61 L371.90 214.61 L372.13 213.60 L372.35 212.60 L372.57 211.59 L372.80 210.59 L373.02 209.59 L373.24 208.58 L373.46 207.58 L373.68 206.58 L373.89 205.57 L374.11 204.57 L374.33 203.57 L374.54 202.56 L374.76 201.56 L374.97 200.56 L375.19 199.55 L375.40 198.55 L375.61 197.54 L375.82 196.54 L376.03 195.54 L376.24 194.53 L376.45 193.53 L376.66 192.53 L376.87 191.52 L377.07 190.52 L377.28 189.52 L377.49 188.52 L377.69 187.51 L377.90 186.51 L378.10 185.51 L378.30 184.50 L378.51 183.50 L378.71 182.50 L378.91 181.49 L379.11 180.49 L379.31 179.49 L379.51 178.48 L379.71 177.48 L379.91 176.48 L380.10 175.48 L380.30 174.47 L380.50 173.47 L380.69 172.47 L380.89 171.46 L381.08 170.46 L381.28 169.46 L381.47 168.46 L381.66 167.45 L381.86 166.45 L382.05 165.45 L382.24 164.44 L382.43 163.44 L382.62 162.44 L382.81 161.44 L383.00 160.43 L383.19 159.43 L383.38 158.43 L383.57 157.42 L383.75 156.42 L383.94 155.42 L384.13 154.42 L384.31 153.41 L384.50 152.41 L384.68 151.41 L384.87 150.41 L385.05 149.40 L385.23 148.40 L385.42 147.40 L385.60 146.40 L385.78 145.39 L385.96 144.39 L386.15 143.39 L386.33 142.39 L386.51 141.38 L386.69 140.38 L386.87 139.38 L387.04 138.38 L387.22 137.37 L387.40 136.37 L387.58 135.37 L387.76 134.37 L387.93 133.36 L388.11 132.36 L388.29 131.36 L388.46 130.36 L388.64 129.36 L388.81 128.35 L388.98 127.35 L389.16 126.35 L389.33 125.35 L389.51 124.34 L389.68 123.34 L389.85 122.34 L390.02 121.34 L390.19 120.33 L390.37 119.33 L390.54 118.33 L390.71 117.33 L390.88 116.33 L391.05 115.32 L391.22 114.32 L391.39 113.32 L391.55 112.32 L391.72 111.31 L391.89 110.31 L392.06 109.31 L392.22 108.31 L392.39 107.31 L392.56 106.30 L392.72 105.30 L392.89 104.30 L393.06 103.30 L393.22 102.30 L393.39 101.29 L393.55 100.29 L393.71 99.29 L393.88 98.29 L394.04 97.29 L394.20 96.28 L394.37 95.28 L394.53 94.28 L394.69 93.28 L394.85 92.28 L395.01 91.27 L395.18 90.27 L395.34 89.27 L395.50 88.27 L395.66 87.27 L395.82 86.26 L395.98 85.26 L396.14 84.26 L396.29 83.26 L396.45 82.26 L396.61 81.25 L396.77 80.25 L396.93 79.25 L397.09 78.25 L397.24 77.25 L397.40 76.25 L397.56 75.24 L397.71 74.24 L397.87 73.24 L398.02 72.24 L398.18 71.24 L398.33 70.23 L398.49 69.23 L398.64 68.23 L398.80 67.23 L398.95 66.23 L399.11 65.23 L399.26 64.22 L399.41 63.22 L399.57 62.22 L399.72 61.22 L399.87 60.22 L400.02 59.21 L400.17 58.21 L400.33 57.21 L400.48 56.21 L400.63 55.21 L400.78 54.21 L400.93 53.20 L401.08 52.20 L401.23 51.20 L401.38 50.20 L401.53 49.20 L401.68 48.20 L401.83 47.19 L401.98 46.19 L402.12 45.19 L402.27 44.19 L402.42 43.19 L402.57 42.19 L402.72 41.18 L402.86 40.18 L403.01 39.18 L403.16 38.18 L403.30 37.18 L403.45 36.18 L403.60 35.17 L403.74 34.17 L403.89 33.17 L404.03 32.17 L404.18 31.17 L404.32 30.17 L404.47 29.16 L404.61 28.16 L404.76 27.16 L404.90 26.16 L405.04 25.16 L405.19 24.16 L405.33 23.16 L405.47 22.15 L405.62 21.15 L405.76 20.15 L405.90 19.15 L406.04 18.15 L406.19 17.15 L406.33 16.14 L406.47 15.14 L406.61 14.14 L406.75 13.14 L406.89 12.14 L407.03 11.14 L407.17 10.14 L407.32 9.13 L407.46 8.13 L407.60 7.13 L407.73 6.13 L407.87 5.13 L408.01 4.13 L408.15 3.12 L408.29 2.12 L408.43 1.12 L408.57 0.12 L408.71 -0.88 " style="fill:none;stroke:#000000;stroke-width:1;" /></g></svg>